HIERARCHY
ROOT Hips
{
  OFFSET -213.699 104.721 0.752556
  CHANNELS 6 Xposition Yposition Zposition Zrotation Xrotation Yrotation
  JOINT RightUpLeg
  {
    OFFSET -8.9458 -8.66707 0.101652
    CHANNELS 3 Zrotation Xrotation Yrotation
    JOINT RightLeg
    {
      OFFSET 0 -44.4227 1.3727
      CHANNELS 3 Zrotation Xrotation Yrotation
      JOINT RightFoot
      {
        OFFSET 0.253549 -42.0924 -1.46059
        CHANNELS 3 Zrotation Xrotation Yrotation
        JOINT RightToes
        {
          OFFSET 0.04 -4.41509 8.4991
          CHANNELS 3 Zrotation Xrotation Yrotation
          End Site
          {
            OFFSET -0.08 -0.137448 9.77979
          }
        }
      }
    }
  }
  JOINT Spine
  {
    OFFSET 0 11.8905 0
    CHANNELS 3 Zrotation Xrotation Yrotation
    JOINT Spine1
    {
      OFFSET 0 25.6574 0.127663
      CHANNELS 3 Zrotation Xrotation Yrotation
      JOINT HEad
      {
        OFFSET 0 8.73416 0.011341
        CHANNELS 3 Zrotation Xrotation Yrotation
        End Site
        {
          OFFSET -0.29 12.7742 2.51395
        }
      }
      JOINT LeftShoulder1
      {
        OFFSET 8.99 -0.362252 -0.22
        CHANNELS 3 Zrotation Xrotation Yrotation
        JOINT LeftArm
        {
          OFFSET 10.2827 -0.00337999 0.322123
          CHANNELS 3 Zrotation Xrotation Yrotation
          JOINT LeftForeArm
          {
            OFFSET 26.2597 0.099144 -1.42434
            CHANNELS 3 Zrotation Xrotation Yrotation
            JOINT LeftHand
            {
              OFFSET 22.0902 0.085362 1.02216
              CHANNELS 3 Zrotation Xrotation Yrotation
              End Site
              {
                OFFSET 13.419 -0.6 1.50291
              }
            }
          }
        }
      }
      JOINT RightShoulder
      {
        OFFSET -8.99 -0.362252 -0.22
        CHANNELS 3 Zrotation Xrotation Yrotation
        JOINT RightArm
        {
          OFFSET -10.2827 -0.00338 0.322123
          CHANNELS 3 Zrotation Xrotation Yrotation
          JOINT RightForeArm
          {
            OFFSET -26.364 0.099144 -1.42434
            CHANNELS 3 Zrotation Xrotation Yrotation
            JOINT RightHand
            {
              OFFSET -22.0324 0.085362 1.02216
              CHANNELS 3 Zrotation Xrotation Yrotation
              End Site
              {
                OFFSET -13.3284 -0.6 1.50291
              }
            }
          }
        }
      }
    }
  }
  JOINT LeftUpLeg
  {
    OFFSET 8.9458 -8.66707 0.101652
    CHANNELS 3 Zrotation Xrotation Yrotation
    JOINT LeftLeg
    {
      OFFSET 0 -44.4227 1.3727
      CHANNELS 3 Zrotation Xrotation Yrotation
      JOINT LeftFoot
      {
        OFFSET -0.253549 -42.0924 -1.46059
        CHANNELS 3 Zrotation Xrotation Yrotation
        JOINT LeftToes
        {
          OFFSET -0.04 -4.41509 8.4991
          CHANNELS 3 Zrotation Xrotation Yrotation
          End Site
          {
            OFFSET 0.08 -0.047448 9.77979
          }
        }
      }
    }
  }
}
MOTION
Frames:	10
Frame Time:	0.0333333
-229.544 104.872 9.06857 -0.14894 0.0931075 91.9437 2.12157 2.76555 -0.978813 -0.111975 6.26595 -16.5189 -2.06657 -5.15245 -0.103725 0.0462048 0.000530889 0.662642 -4.7289 -2.15372 -1.55528 3.05844 8.54184 -2.153 2.41705 -0.539968 -3.20298 -32.8934 -4.34749 14.6387 -78.7222 -44.8923 -38.3007 -170.165 70.6823 172.374 8.82705 8.89447 -9.14127 32.3501 -1.88803 -8.98186 50.8578 -22.0443 17.5773 6.81003 58.3205 7.88347 -0.735236 9.89092 1.42666 -0.951964 0.0769528 1.24845 1.50863 8.03455 10.4974 2.1574 -6.19123 -0.000659506 -1.33341e-009 8.75222e-006 -1.46831e-008 
-229.543 104.872 9.07992 -0.150862 0.100864 91.9357 2.0974 2.76307 -1.0309 -0.0622213 6.28749 -16.4606 -2.1318 -5.16687 -0.103727 0.0462048 0.000530889 0.662642 -4.75203 -2.17232 -1.54851 3.11783 8.60307 -2.15364 2.37919 -0.533598 -3.1608 -32.9008 -4.35924 14.6666 -78.801 -44.8484 -38.3851 -170.151 70.7093 172.365 8.79093 8.89011 -9.27201 32.3074 -1.89831 -9.01473 50.8839 -22.0014 17.6669 6.94027 58.3134 7.75335 -0.774809 9.89093 1.42304 -0.96717 0.0844567 1.21866 1.53327 8.02328 10.5299 2.14975 -6.19087 -0.000659505 -1.33341e-009 8.75222e-006 -1.46831e-008 
-229.533 104.871 9.10318 -0.127463 0.115318 91.8885 2.0562 2.78542 -1.12497 0.0228109 6.32423 -16.3426 -2.30684 -5.18493 -0.10373 0.0462048 0.000530889 0.662642 -4.72756 -2.20354 -1.51898 3.13123 8.73798 -2.13065 2.31133 -0.516941 -3.09144 -32.8519 -4.34024 14.6321 -78.749 -44.6315 -38.349 -169.88 71.0957 171.888 8.62518 8.91993 -9.14086 32.2889 -1.9272 -9.09251 50.9203 -21.955 17.8455 7.19076 58.3358 7.49259 -0.83296 9.89094 1.42053 -0.987905 0.131231 1.18386 1.56922 8.00907 10.6109 2.0911 -6.1985 -0.000659515 -1.33341e-009 8.75222e-006 -1.46831e-008 
-229.511 104.867 9.13174 -0.0714456 0.118742 91.8333 2.04477 2.87167 -1.18652 0.0787122 6.31121 -16.2583 -2.45667 -5.19621 -0.103732 0.0462048 0.000530889 0.662642 -4.54245 -2.19549 -1.47668 2.90631 8.83418 -2.04166 2.27655 -0.499657 -3.169 -32.6634 -4.23941 14.4275 -78.6029 -44.4349 -38.133 -169.51 71.5796 171.261 8.50936 8.95955 -8.76393 32.4405 -1.96022 -9.15615 50.8586 -21.9743 17.9186 7.32288 58.3918 7.34921 -0.895852 9.8908 1.45471 -0.976058 0.203199 1.19146 1.58211 8.02634 10.6637 1.98545 -6.22939 -0.000659553 -1.33341e-009 8.75222e-006 -1.46831e-008 
-229.517 104.86 9.17108 -0.0759387 0.11446 91.8354 2.07375 2.86416 -1.17154 0.0861199 6.30824 -16.286 -2.50145 -5.21597 -0.103735 0.0462048 0.000530889 0.662642 -4.34019 -2.1592 -1.47271 2.64413 8.80965 -1.98031 2.31759 -0.448165 -3.23109 -32.4372 -4.12034 14.1848 -78.6577 -44.4631 -38.0059 -169.503 71.5998 171.273 8.63504 8.94988 -8.67535 32.6099 -1.94999 -9.10508 50.8022 -22.0491 17.8166 7.21215 58.4207 7.45129 -0.947796 9.89055 1.51027 -0.938067 0.140024 1.21519 1.57204 8.13229 10.6357 1.97192 -6.26025 -0.000659592 -1.33341e-009 8.75222e-006 -1.46831e-008 
-229.584 104.855 9.23027 -0.20422 0.122448 91.9005 2.11046 2.62287 -1.10289 0.0744245 6.42768 -16.4056 -2.49451 -5.24969 -0.103741 0.0462048 0.000530889 0.662642 -4.38577 -2.16496 -1.55911 2.73795 8.7437 -2.08719 2.42308 -0.34007 -2.84504 -32.3994 -4.11913 14.1919 -78.9177 -44.5277 -38.1652 -169.712 71.3501 171.666 8.63329 8.93798 -8.85961 32.4765 -1.8555 -8.87923 50.9845 -22.1023 17.6922 6.97683 58.3528 7.66968 -0.921046 9.89054 1.51359 -0.909974 -0.130872 1.20378 1.56438 8.2951 10.5656 2.05566 -6.2651 -0.000659598 -1.33341e-009 8.75222e-006 -1.46831e-008 
-229.667 104.853 9.30529 -0.358554 0.158785 91.9366 2.11897 2.28933 -1.04933 0.0708817 6.65809 -16.4835 -2.52449 -5.30494 -0.104373 0.0462048 0.000530889 0.662642 -4.65356 -2.20439 -1.69408 3.14221 8.74822 -2.31314 2.49908 -0.256961 -2.11813 -32.5632 -4.24418 14.4681 -79.0775 -44.3638 -38.4254 -169.588 71.5412 171.523 8.07305 9.01763 -8.68274 32.0679 -1.71398 -8.56659 51.3403 -22.0355 17.6356 6.75562 58.166 7.8941 -0.79873 9.89072 1.47198 -0.908084 -0.399894 1.16653 1.56495 8.37794 10.5482 2.03406 -6.2338 -0.000659559 -1.33341e-009 8.75222e-006 -1.46831e-008 
-229.695 104.847 9.38314 -0.402551 0.226686 91.8517 2.09513 2.10046 -1.0468 0.0613978 6.90834 -16.4067 -2.61047 -5.42022 -0.106659 0.0462048 0.000530889 0.662642 -4.83815 -2.12988 -1.73326 3.39009 8.72614 -2.40919 2.43639 -0.317475 -1.84195 -32.6635 -4.32226 14.6402 -79.033 -44.1269 -38.4646 -169.114 72.1624 170.844 7.44159 9.13109 -8.05457 31.824 -1.64346 -8.41358 51.4439 -21.8091 17.5355 6.57981 57.9348 8.1501 -0.701453 9.89061 1.49813 -0.929171 -0.441407 1.1484 1.55561 8.33784 10.6448 1.88735 -6.19034 -0.000659505 -1.33341e-009 8.75222e-006 -1.46831e-008 
-229.674 104.832 9.46301 -0.350779 0.307243 91.6774 2.07056 2.05909 -1.05583 0.0229685 7.13244 -16.2318 -2.70283 -5.59531 -0.10897 0.0462048 0.000530889 0.662642 -4.81335 -1.81682 -1.60277 3.31285 8.46257 -2.26177 2.23717 -0.4858 -2.35892 -32.5646 -4.24171 14.4613 -78.9785 -44.1154 -38.2951 -168.897 72.4365 170.557 7.67604 9.12155 -7.74115 31.9973 -1.71493 -8.5781 51.1106 -21.5967 17.3759 6.57084 57.8713 8.26538 -0.745287 9.88999 1.63161 -0.95934 -0.334964 1.16108 1.52992 8.30285 10.8068 1.85564 -6.18623 -0.000659499 -1.33341e-009 8.75222e-006 -1.46831e-008 
-229.664 104.817 9.5589 -0.298651 0.358838 91.5268 2.08947 2.0547 -1.02714 -0.0192293 7.26604 -16.1099 -2.76892 -5.72475 -0.110919 0.0462048 0.000530889 0.662642 -4.75615 -1.36608 -1.43507 3.24369 8.01168 -2.0826 2.01438 -0.598302 -2.96067 -32.4969 -4.14065 14.2206 -78.9739 -44.2249 -38.2433 -169.176 72.0818 170.924 8.67364 8.98334 -8.10214 32.2637 -1.82935 -8.84163 50.8227 -21.7868 17.3793 6.92628 58.2269 7.84583 -0.867112 9.88945 1.74041 -0.936395 -0.270127 1.22627 1.48204 8.3428 10.8883 1.93193 -6.23187 -0.000659557 -1.33341e-009 8.75222e-006 -1.46831e-008 
